<?xml version="1.0" standalone="no"?>
<!DOCTYPE svg PUBLIC "-//W3C//DTD SVG 20010904//EN"
 "http://www.w3.org/TR/2001/REC-SVG-20010904/DTD/svg10.dtd">
<svg version="1.0" xmlns="http://www.w3.org/2000/svg"
 width="48.000000pt" height="48.000000pt" viewBox="0 0 48.000000 48.000000"
 preserveAspectRatio="xMidYMid meet">
<metadata>
Created by potrace 1.16, written by Peter Selinger 2001-2019
</metadata>
<g transform="translate(0.000000,48.000000) scale(0.100000,-0.100000)"
fill="#000000" stroke="none">
<path d="M245 431 l-90 -17 -6 -124 c-3 -69 -7 -126 -8 -127 0 -2 -13 -3 -29
-3 -43 0 -72 -26 -72 -64 0 -22 6 -36 16 -40 29 -11 79 -6 102 10 20 14 22 23
22 127 0 62 4 117 8 124 4 6 43 18 87 27 94 18 105 11 105 -58 0 -67 -9 -86
-39 -86 -42 0 -71 -26 -71 -64 0 -22 6 -36 16 -40 29 -11 79 -6 102 10 21 15
22 21 22 180 l0 164 -37 -1 c-21 -1 -78 -9 -128 -18z"/>
</g>
</svg>
